<?xml version="1.0" encoding="utf-8"?>
<!-- Generator: Adobe Illustrator 16.0.0, SVG Export Plug-In . SVG Version: 6.00 Build 0)  -->
<!DOCTYPE svg PUBLIC "-//W3C//DTD SVG 1.1//EN" "http://www.w3.org/Graphics/SVG/1.1/DTD/svg11.dtd">
<svg version="1.1" id="Layer_1" xmlns="http://www.w3.org/2000/svg" xmlns:xlink="http://www.w3.org/1999/xlink" x="0px" y="0px"
	 width="430.96px" height="295.023px" viewBox="0 0 430.96 295.023" enable-background="new 0 0 430.96 295.023"
	 xml:space="preserve">
<path fill="#FB503B" d="M429.307,137.828c-2.853-3.209-42.302-52.591-49.254-60.97s-10.34-6.864-14.619-6.24
	s-54.195,9.003-59.989,9.983s-9.448,3.298-5.883,8.29c3.171,4.439,35.986,50.961,43.214,61.208l-130.46,31.253L108.56,7.889
	c-4.13-6.124-4.988-8.264-14.388-7.836S12.78,6.461,7.653,6.889s-10.756,2.71-5.628,14.816s86.886,188.29,89.165,193.417
	s8.204,13.444,22.076,10.111c14.213-3.415,63.502-16.279,90.434-23.333c14.231,25.771,43.254,78.045,48.621,85.535
	c7.166,10,12.099,8.346,23.1,5.013c8.589-2.603,134.4-47.846,140.067-50.179s9.167-4,5.333-9.667
	c-2.818-4.166-36.008-48.629-53.392-71.89c11.906-3.169,54.244-14.44,58.758-15.664C431.446,143.623,432.16,141.037,429.307,137.828
	z M192.135,186.32c-1.56,0.334-74.63,17.822-78.529,18.714s-3.898,0.445-4.344-0.892S22.383,24.583,21.183,22.355
	s-1.137-3.994,0-3.994s69.008-6.066,71.41-6.193s2.149,0.379,3.033,1.896c0,0,95.729,165.239,97.4,168.134
	S193.694,185.986,192.135,186.32z M398.155,224.935c1.166,1.834,2.332,3.001-1.334,4.334s-123.667,41.833-126,42.833
	s-4.166,1.333-7.166-3s-42.042-71.9-42.042-71.9l127.208-33.1c3.167-1,4.167-1.667,6.167,1.5S396.989,223.101,398.155,224.935z
	 M406.31,134.619c-2.853,0.624-49.561,12.212-49.561,12.212l-38.201-52.414c-1.07-1.515-1.961-3.031,0.713-3.387
	s46.084-8.201,48.045-8.646s3.655-0.98,6.062,2.318s35.438,45.104,36.686,46.708S409.163,133.995,406.31,134.619z"/>
</svg>
